<svg version="1.1" id="Layer_1" xmlns="http://www.w3.org/2000/svg" xmlns:xlink="http://www.w3.org/1999/xlink" x="0px" y="0px"
	 width="100%" viewBox="0 0 225 225" enable-background="new 0 0 225 225" xml:space="preserve">
<path fill="#010101" opacity="1.000000" stroke="none" 
	d="
M122.000000,226.000000 
	C81.333336,226.000000 41.166672,226.000000 1.000005,226.000000 
	C1.000004,151.000000 1.000004,76.000015 1.000002,1.000015 
	C75.999992,1.000010 150.999985,1.000010 225.999969,1.000005 
	C225.999985,75.999985 225.999985,150.999969 226.000000,225.999969 
	C191.500000,226.000000 157.000000,226.000000 122.000000,226.000000 
M64.276588,143.096359 
	C62.527161,144.448395 57.760914,143.169479 59.906643,148.678467 
	C58.604427,149.785645 57.302212,150.892822 55.301647,152.168045 
	C53.284130,154.103699 53.145157,155.768021 56.092075,157.997772 
	C56.325470,158.622955 56.558865,159.248154 56.896191,160.581284 
	C56.544495,161.720108 56.192799,162.858917 55.130867,163.999130 
	C54.420628,163.999420 53.710392,163.999710 52.661938,163.403198 
	C50.454308,161.240784 49.218838,162.645844 49.153530,164.788956 
	C49.019413,169.190018 49.159111,173.625198 49.572727,178.009842 
	C49.974281,182.266571 52.383530,183.166168 56.856339,181.005417 
	C59.144295,181.336121 61.431675,181.950150 63.720295,181.954803 
	C95.141754,182.018723 126.563469,182.022125 157.984726,181.918503 
	C159.325089,181.914078 160.661545,180.728165 162.846985,179.932877 
	C164.826706,179.740555 166.806412,179.548218 169.055237,179.997223 
	C169.370163,180.331482 169.685089,180.665741 170.125183,181.643646 
	C171.083450,181.429092 172.041733,181.214539 173.000000,180.500000 
	C173.000000,180.500000 173.000000,180.000000 173.821381,179.995346 
	C175.207199,178.789368 177.573074,177.734573 177.786987,176.347824 
	C178.332565,172.810928 178.216476,169.090927 177.797699,165.510590 
	C177.427887,162.348785 177.147003,158.655212 173.655396,158.580811 
	C172.598129,155.960617 171.799072,153.980316 170.489944,151.493073 
	C166.655624,151.572815 167.494293,147.832947 165.910980,145.318649 
	C164.273987,143.879105 162.636993,142.439545 160.137787,141.001251 
	C158.988831,141.041229 157.839890,141.081207 156.302887,141.003311 
	C156.053909,140.852356 155.909073,140.632721 155.936737,139.564423 
	C155.957825,139.042953 155.978912,138.521469 156.680695,137.841873 
	C156.681824,136.376587 157.240265,134.024261 156.580994,133.610046 
	C154.488556,132.295380 154.112305,127.493813 149.268951,129.974640 
	C148.512634,128.983200 147.756317,127.991753 146.973389,126.276634 
	C146.451843,123.352097 144.911880,123.597267 142.333344,125.000000 
	C141.888901,125.000000 141.444443,125.000000 140.688492,124.588470 
	C140.125656,124.725746 139.562836,124.863029 138.143066,125.000206 
	C136.428711,125.000175 134.714355,125.000145 132.723724,124.357826 
	C132.815811,122.238548 132.907913,120.119278 133.751633,117.981575 
	C142.068695,114.701180 144.952621,107.585419 142.010620,97.399200 
	C142.400711,97.295578 142.790802,97.191956 143.801895,97.648041 
	C144.964111,98.051743 146.126328,98.455437 147.288528,98.859138 
	C147.369354,97.344803 147.450180,95.830475 147.605621,92.917938 
	C145.280975,95.002052 144.227295,95.946724 142.346786,96.471886 
	C143.271667,92.981277 144.196548,89.490677 145.780365,85.846352 
	C148.682739,82.223938 148.633255,79.061806 145.323593,76.454361 
	C145.320328,76.030632 145.317062,75.606895 145.945374,74.881500 
	C145.665527,73.920998 145.385666,72.960495 144.745926,71.335594 
	C144.593643,70.617393 144.441360,69.899200 144.873016,68.921387 
	C144.540314,68.280869 144.207626,67.640343 143.411591,66.638794 
	C143.107895,65.720284 142.804184,64.801765 142.771835,62.997868 
	C143.307632,59.923618 142.582123,57.836926 138.988785,58.008816 
	C138.988785,58.008816 138.930222,58.086792 139.283798,57.467045 
	C139.622925,57.118469 139.901398,56.653763 140.310867,56.439869 
	C143.309998,54.873295 144.069901,52.245399 141.657425,50.232628 
	C140.490952,49.259426 137.473587,50.288612 135.373810,50.763218 
	C134.602570,50.937542 134.060684,52.126598 132.745148,52.670227 
	C131.421066,51.812523 130.097000,50.954823 129.420380,49.777084 
	C129.918304,48.211304 130.416245,46.645523 130.914185,45.079742 
	C128.579590,45.079742 126.245003,45.079742 123.265587,45.079742 
	C118.744148,44.779282 113.614197,44.119892 108.512306,44.292118 
	C106.968246,44.344246 105.501930,46.699039 103.457626,48.368595 
	C102.634377,48.565216 101.811119,48.761837 101.088043,48.248451 
	C100.886070,46.968353 100.899246,44.680264 100.444740,44.583252 
	C98.513206,44.170963 96.443039,44.408154 94.127098,44.408154 
	C95.022064,47.531582 95.545433,49.358162 95.728882,51.750843 
	C94.639633,52.489944 93.550385,53.229046 92.327591,53.931213 
	C92.327591,53.931213 92.202141,53.872372 92.084427,53.055145 
	C91.422935,51.733192 90.988564,49.534290 90.047806,49.290638 
	C88.561104,48.905590 85.484161,49.502853 85.284035,50.263905 
	C84.654594,52.657539 85.052231,55.321259 85.052231,58.469513 
	C83.521225,59.376312 80.285622,60.188557 79.327553,62.126663 
	C77.989799,64.832832 79.095123,68.003899 82.761765,69.929962 
	C82.472572,70.619980 82.183372,71.309990 81.226326,72.175110 
	C81.379623,73.177826 81.532913,74.180542 81.771904,75.819649 
	C81.633873,76.217178 81.495842,76.614716 80.656448,77.091881 
	C78.502762,80.415512 77.790840,83.539948 82.209808,86.723236 
	C82.808144,89.482155 83.406487,92.241081 83.259804,94.897865 
	C81.937050,94.961151 80.614304,95.024445 79.291550,95.087730 
	C79.555115,97.274406 79.818672,99.461082 80.082237,101.647758 
	C80.539139,101.647766 80.996040,101.647766 81.452950,101.647774 
	C82.538513,99.998955 83.624077,98.350143 85.021591,97.218994 
	C85.320564,98.146301 85.619545,99.073601 85.265015,100.151031 
	C83.769188,102.974686 83.990677,103.299484 88.286308,104.433754 
	C88.526154,104.951027 88.765991,105.468300 88.477715,106.501350 
	C86.068779,107.314461 81.801163,107.195740 85.203056,111.459724 
	C87.096588,113.833115 89.833748,115.533417 92.853172,118.100220 
	C93.292450,116.151054 93.650597,114.561867 94.608437,113.218758 
	C95.776512,114.465424 96.944580,115.712090 97.461647,117.252594 
	C92.914146,118.651016 96.941727,122.773964 94.166672,125.000206 
	C92.777779,125.000160 91.388893,125.000122 89.411781,124.468307 
	C86.479858,124.275932 83.230675,122.341248 80.313461,126.140831 
	C77.154320,129.375595 70.817184,129.608261 71.001236,136.866058 
	C71.042297,138.020370 71.083359,139.174698 70.974922,140.715378 
	C70.798172,140.953369 70.561905,141.082184 69.492851,141.052475 
	C67.995232,141.701645 66.497612,142.350815 64.276588,143.096359 
z"/>
<path fill="#030303" opacity="1.000000" stroke="none" 
	d="
M92.202141,53.872372 
	C92.202141,53.872372 92.327591,53.931213 92.184402,54.473053 
	C92.852753,55.166977 93.930748,55.734653 94.436760,55.410221 
	C106.345573,47.774906 118.517609,48.291508 131.095947,54.311256 
	C131.867020,54.877987 132.448349,55.169464 133.208847,55.563911 
	C133.991577,55.985313 134.595154,56.303745 135.251587,57.173367 
	C137.541733,62.059635 140.619324,66.170647 141.847076,70.774925 
	C144.685852,81.420921 141.909027,91.597610 137.489380,101.402161 
	C136.835556,102.852592 136.537231,104.463272 136.059189,105.996880 
	C136.043930,105.993942 136.023758,106.012878 135.656982,105.808090 
	C134.534164,107.407768 133.778122,109.212242 133.011353,111.008057 
	C133.000610,110.999405 133.025513,111.013702 132.789734,110.642647 
	C131.037827,112.192307 129.521698,114.113014 128.000198,116.017067 
	C127.994812,116.000412 128.026245,116.015495 127.804855,115.632523 
	C122.417183,118.346779 117.100624,121.204903 110.813667,120.011246 
	C107.462952,119.375076 104.246796,118.030159 100.985779,117.000183 
	C101.001640,116.995232 100.991653,117.026894 101.223145,116.721954 
	C98.626106,113.945091 95.797577,111.473183 92.984261,108.998421 
	C92.999481,108.995575 92.979462,109.018364 93.299606,108.720810 
	C92.738914,107.620491 91.858078,106.817719 90.968681,106.005310 
	C90.960121,105.995682 90.931511,106.005142 91.266785,105.744049 
	C90.583748,103.409241 89.385422,101.403221 88.576126,99.250916 
	C82.985527,84.382790 80.491737,69.797104 92.735748,56.616440 
	C93.064575,56.262459 92.319504,54.910896 92.100800,53.981369 
	C92.126389,53.938202 92.202141,53.872372 92.202141,53.872372 
z"/>
<path fill="#0FA1CF" opacity="1.000000" stroke="none" 
	d="
M55.841103,163.997742 
	C56.192799,162.858917 56.544495,161.720108 57.113113,160.028717 
	C60.203747,154.867645 63.077457,150.259125 65.959366,145.634857 
	C65.967560,145.619110 65.976479,145.583969 66.238892,145.459930 
	C67.756241,143.924530 69.011177,142.513168 70.266113,141.101807 
	C70.561905,141.082184 70.798172,140.953369 71.354919,140.363266 
	C77.098846,136.459488 82.409393,132.823242 87.848076,129.390015 
	C90.789459,127.533234 93.505112,128.006561 96.512993,130.097809 
	C107.926445,138.033096 119.183678,137.993637 130.642181,129.970398 
	C133.520416,127.955078 136.132156,127.574928 138.874191,129.271057 
	C144.622604,132.826889 150.213043,136.638092 155.868362,140.344421 
	C155.909073,140.632721 156.053909,140.852356 156.659088,141.353760 
	C158.346573,143.008804 159.677887,144.313400 161.013245,145.636261 
	C161.017303,145.654495 161.035889,145.685944 161.171967,146.003571 
	C164.134018,150.712540 166.960007,155.103897 169.850128,159.824966 
	C170.325211,161.436081 170.736130,162.717468 171.111145,164.398010 
	C171.186157,167.163712 171.297058,169.530273 171.355225,172.255066 
	C171.352997,173.091248 171.403519,173.569183 171.365982,174.342346 
	C170.447327,176.210342 169.616730,177.783112 168.786133,179.355881 
	C166.806412,179.548218 164.826706,179.740555 161.960968,179.930603 
	C147.947449,179.916199 134.819946,179.897476 121.692451,179.893494 
	C102.250221,179.887589 82.807983,179.903137 63.365765,179.886078 
	C56.906792,179.880402 55.728184,178.714005 55.733383,172.463364 
	C55.735729,169.641464 55.803188,166.819611 55.841103,163.997742 
M58.088100,170.540710 
	C58.103161,177.097183 58.103161,177.105316 64.599670,177.105896 
	C97.422775,177.108856 130.245880,177.107239 163.068985,177.107208 
	C164.978958,177.107208 166.888931,177.107208 170.385452,177.107208 
	C168.669083,169.678284 168.310028,162.949982 165.580276,157.384430 
	C159.865784,145.733337 150.579132,137.118240 138.495010,132.017990 
	C136.630325,131.230972 133.523193,131.462906 131.815842,132.536240 
	C119.529877,140.259872 107.527893,140.228088 95.210831,132.580673 
	C93.406441,131.460358 90.089355,131.337112 88.095879,132.197525 
	C76.402153,137.244675 67.555611,145.724030 61.592731,156.865601 
	C59.560841,160.662155 59.208191,165.357407 58.088100,170.540710 
M159.318176,178.081207 
	C126.976662,178.081207 94.635147,178.081207 62.293629,178.081207 
	C62.294704,178.272858 62.295776,178.464523 62.296852,178.656174 
	C96.756104,178.656174 131.215363,178.656174 165.674606,178.656174 
	C165.678497,178.464584 165.682388,178.272995 165.686279,178.081406 
	C163.873306,178.081406 162.060318,178.081406 159.318176,178.081207 
z"/>
<path fill="#020202" opacity="1.000000" stroke="none" 
	d="
M155.902557,139.954422 
	C150.213043,136.638092 144.622604,132.826889 138.874191,129.271057 
	C136.132156,127.574928 133.520416,127.955078 130.642181,129.970398 
	C119.183678,137.993637 107.926445,138.033096 96.512993,130.097809 
	C93.505112,128.006561 90.789459,127.533234 87.848076,129.390015 
	C82.409393,132.823242 77.098846,136.459488 71.429672,140.170074 
	C71.083359,139.174698 71.042297,138.020370 71.344849,136.384796 
	C74.475067,133.680420 77.351639,131.556671 79.988670,129.168411 
	C80.699364,128.524765 80.682762,127.078072 81.438446,126.000000 
	C84.584595,125.666695 87.292297,125.333389 90.000000,125.000084 
	C91.388893,125.000122 92.777779,125.000160 94.845673,125.256058 
	C100.971031,126.150589 104.093048,131.231720 109.955818,132.193787 
	C115.179199,133.050934 118.956673,129.435303 123.613617,130.496658 
	C124.927185,125.564644 129.664749,126.479729 133.000000,125.000107 
	C134.714355,125.000145 136.428711,125.000175 138.727295,125.205971 
	C139.874344,125.274490 140.437180,125.137245 141.000000,125.000000 
	C141.444443,125.000000 141.888901,125.000000 142.870178,125.255302 
	C144.604691,126.007172 145.802338,126.503738 147.000000,127.000305 
	C147.756317,127.991753 148.512634,128.983200 149.795090,130.290497 
	C152.214157,133.070908 154.107071,135.535446 156.000000,138.000000 
	C155.978912,138.521469 155.957825,139.042953 155.902557,139.954422 
z"/>
<path fill="#010101" opacity="1.000000" stroke="none" 
	d="
M132.861862,124.678970 
	C129.664749,126.479729 124.927185,125.564644 123.613617,130.496658 
	C118.956673,129.435303 115.179199,133.050934 109.955818,132.193787 
	C104.093048,131.231720 100.971031,126.150589 95.262344,125.256104 
	C96.941727,122.773964 92.914146,118.651016 98.205887,117.278366 
	C99.630638,117.211723 100.311150,117.119308 100.991653,117.026901 
	C100.991653,117.026894 101.001640,116.995232 100.609863,117.205482 
	C100.863678,118.230011 101.509277,119.044281 101.838776,120.050255 
	C97.377129,125.209824 103.923492,125.792252 104.895134,128.735764 
	C105.275871,126.876091 105.006630,125.211685 104.388802,123.688683 
	C103.834953,122.323402 102.897461,121.113747 102.496101,119.926804 
	C105.830711,120.937973 108.740921,122.225166 111.778206,122.700691 
	C117.998741,123.674599 125.786537,120.268188 128.026245,116.015495 
	C128.026245,116.015495 127.994812,116.000412 128.265167,116.311905 
	C129.011948,116.410919 129.488403,116.198433 130.219421,116.170898 
	C131.315994,116.903900 132.157990,117.451950 133.000000,118.000000 
	C132.907913,120.119278 132.815811,122.238548 132.861862,124.678970 
z"/>
<path fill="#020202" opacity="1.000000" stroke="none" 
	d="
M55.485985,163.998444 
	C55.803188,166.819611 55.735729,169.641464 55.733383,172.463364 
	C55.728184,178.714005 56.906792,179.880402 63.365765,179.886078 
	C82.807983,179.903137 102.250221,179.887589 121.692451,179.893494 
	C134.819946,179.897476 147.947449,179.916199 161.537384,180.010498 
	C160.661545,180.728165 159.325089,181.914078 157.984726,181.918503 
	C126.563469,182.022125 95.141754,182.018723 63.720295,181.954803 
	C61.431675,181.950150 59.144295,181.336121 56.266499,180.699234 
	C50.451263,174.179718 49.782837,170.085739 53.000153,164.000000 
	C53.710392,163.999710 54.420628,163.999420 55.485985,163.998444 
z"/>
<path fill="#E4E4E4" opacity="1.000000" stroke="none" 
	d="
M92.075218,54.024540 
	C92.319504,54.910896 93.064575,56.262459 92.735748,56.616440 
	C80.491737,69.797104 82.985527,84.382790 88.576126,99.250916 
	C89.385422,101.403221 90.583748,103.409241 91.043602,106.093788 
	C89.992050,106.464935 89.498940,106.225258 89.005836,105.985573 
	C88.765991,105.468300 88.526154,104.951027 88.077698,103.891716 
	C87.218895,102.233421 86.568710,101.117165 85.918518,100.000908 
	C85.619545,99.073601 85.320564,98.146301 84.863846,96.636780 
	C84.472343,95.703049 84.238586,95.351524 84.004829,95.000000 
	C83.406487,92.241081 82.808144,89.482155 82.109505,85.960602 
	C81.792068,82.469391 81.574944,79.740822 81.357819,77.012245 
	C81.495842,76.614716 81.633873,76.217178 81.856247,75.202621 
	C81.925125,73.723732 81.909645,72.861870 81.894173,72.000000 
	C82.183372,71.309990 82.472572,70.619980 82.891716,69.231445 
	C86.039513,63.696804 89.057365,58.860672 92.075218,54.024540 
z"/>
<path fill="#E4E4E4" opacity="1.000000" stroke="none" 
	d="
M136.074448,105.999817 
	C136.537231,104.463272 136.835556,102.852592 137.489380,101.402161 
	C141.909027,91.597610 144.685852,81.420921 141.847076,70.774925 
	C140.619324,66.170647 137.541733,62.059635 135.806946,57.120647 
	C137.183044,57.040092 138.056625,57.563442 138.930222,58.086792 
	C138.930222,58.086792 138.988785,58.008816 139.052856,58.357323 
	C140.244766,60.431637 141.372620,62.157448 142.500488,63.883255 
	C142.804184,64.801765 143.107895,65.720284 143.618942,67.102135 
	C143.980560,68.103981 144.134827,68.642494 144.289093,69.181000 
	C144.441360,69.899200 144.593643,70.617393 144.868073,71.987488 
	C145.098068,73.487312 145.205933,74.335236 145.313812,75.183167 
	C145.317062,75.606895 145.320328,76.030632 145.381638,77.136948 
	C145.333603,80.546379 145.227524,83.273232 145.121429,86.000076 
	C144.196548,89.490677 143.271667,92.981277 142.806458,96.705269 
	C143.266113,96.938652 143.180893,97.088326 143.180893,97.088333 
	C142.790802,97.191956 142.400711,97.295578 141.639038,97.902969 
	C139.536469,100.937767 137.805450,103.468796 136.074448,105.999817 
z"/>
<path fill="#010101" opacity="1.000000" stroke="none" 
	d="
M92.100800,53.981369 
	C89.057365,58.860672 86.039513,63.696804 82.866905,68.854065 
	C79.095123,68.003899 77.989799,64.832832 79.327553,62.126663 
	C80.285622,60.188557 83.521225,59.376312 85.052231,58.469513 
	C85.052231,55.321259 84.654594,52.657539 85.284035,50.263905 
	C85.484161,49.502853 88.561104,48.905590 90.047806,49.290638 
	C90.988564,49.534290 91.422935,51.733192 92.143280,53.463760 
	C92.202141,53.872372 92.126389,53.938202 92.100800,53.981369 
z"/>
<path fill="#010101" opacity="1.000000" stroke="none" 
	d="
M104.000000,47.999100 
	C105.501930,46.699039 106.968246,44.344246 108.512306,44.292118 
	C113.614197,44.119892 118.744148,44.779282 123.265587,45.079742 
	C126.245003,45.079742 128.579590,45.079742 130.914185,45.079742 
	C130.416245,46.645523 129.918304,48.211304 128.720551,49.881248 
	C120.225555,46.762825 112.152985,46.894718 104.000000,47.999100 
z"/>
<path fill="#010101" opacity="1.000000" stroke="none" 
	d="
M171.454041,174.047134 
	C171.403519,173.569183 171.352997,173.091248 171.735306,172.304230 
	C176.734528,173.137268 176.586899,170.163361 175.466339,167.586151 
	C174.800186,166.054031 172.637115,165.172745 171.147049,163.998840 
	C170.736130,162.717468 170.325211,161.436081 170.018234,159.426666 
	C170.414795,156.465775 170.707397,154.232880 171.000000,152.000000 
	C171.799072,153.980316 172.598129,155.960617 173.655396,158.580811 
	C177.147003,158.655212 177.427887,162.348785 177.797699,165.510590 
	C178.216476,169.090927 178.332565,172.810928 177.786987,176.347824 
	C177.573074,177.734573 175.207199,178.789368 173.462234,179.637970 
	C173.556000,177.220184 177.700592,173.996536 171.454041,174.047134 
z"/>
<path fill="#010101" opacity="1.000000" stroke="none" 
	d="
M136.059189,105.996880 
	C137.805450,103.468796 139.536469,100.937767 141.553375,98.216431 
	C144.952621,107.585419 142.068695,114.701180 133.375824,117.571930 
	C132.996857,115.766045 132.993729,114.369797 133.112457,112.597763 
	C133.164703,111.819206 133.095108,111.416458 133.025513,111.013702 
	C133.025513,111.013702 133.000610,110.999405 133.365280,111.248032 
	C134.494553,109.668724 135.259155,107.840805 136.023758,106.012878 
	C136.023758,106.012878 136.043930,105.993942 136.059189,105.996880 
z"/>
<path fill="#E4E4E4" opacity="1.000000" stroke="none" 
	d="
M103.728813,48.183846 
	C112.152985,46.894718 120.225555,46.762825 128.396820,50.041264 
	C130.097000,50.954823 131.421066,51.812523 133.318329,53.075272 
	C134.033157,53.701687 134.174820,53.923058 133.747498,54.085548 
	C132.421066,54.029778 131.663651,54.032890 130.906219,54.035999 
	C118.517609,48.291508 106.345573,47.774906 94.436760,55.410221 
	C93.930748,55.734653 92.852753,55.166977 92.251183,54.491524 
	C93.550385,53.229046 94.639633,52.489944 96.149826,51.429214 
	C96.717285,51.022766 96.863800,50.937950 97.285561,50.871220 
	C97.788750,50.620995 98.016678,50.352692 98.549423,50.053665 
	C99.565445,49.668118 100.276657,49.313290 100.987869,48.958458 
	C101.811119,48.761837 102.634377,48.565216 103.728813,48.183846 
z"/>
<path fill="#010101" opacity="1.000000" stroke="none" 
	d="
M88.741776,106.243462 
	C89.498940,106.225258 89.992050,106.464935 90.708328,106.354881 
	C90.931511,106.005142 90.960121,105.995682 90.496574,106.244583 
	C91.015175,107.335114 91.997314,108.176735 92.979462,109.018364 
	C92.979462,109.018364 92.999481,108.995575 92.578217,109.172989 
	C92.774223,110.557823 93.391487,111.765251 94.008751,112.972672 
	C93.650597,114.561867 93.292450,116.151054 92.853172,118.100220 
	C89.833748,115.533417 87.096588,113.833115 85.203056,111.459724 
	C81.801163,107.195740 86.068779,107.314461 88.741776,106.243462 
z"/>
<path fill="#010101" opacity="1.000000" stroke="none" 
	d="
M134.316483,54.144432 
	C134.174820,53.923058 134.033157,53.701687 133.652832,53.166553 
	C134.060684,52.126598 134.602570,50.937542 135.373810,50.763218 
	C137.473587,50.288612 140.490952,49.259426 141.657425,50.232628 
	C144.069901,52.245399 143.309998,54.873295 140.310867,56.439869 
	C139.901398,56.653763 139.622925,57.118469 139.107010,57.776917 
	C138.056625,57.563442 137.183044,57.040092 135.754089,56.569458 
	C134.595154,56.303745 133.991577,55.985313 133.533646,55.771149 
	C133.891678,55.298416 134.104080,54.721424 134.316483,54.144432 
z"/>
<path fill="#010101" opacity="1.000000" stroke="none" 
	d="
M52.831047,163.701599 
	C49.782837,170.085739 50.451263,174.179718 55.838406,180.696533 
	C52.383530,183.166168 49.974281,182.266571 49.572727,178.009842 
	C49.159111,173.625198 49.019413,169.190018 49.153530,164.788956 
	C49.218838,162.645844 50.454308,161.240784 52.831047,163.701599 
z"/>
<path fill="#020202" opacity="1.000000" stroke="none" 
	d="
M170.744965,151.746536 
	C170.707397,154.232880 170.414795,156.465775 169.954086,159.096954 
	C166.960007,155.103897 164.134018,150.712540 161.582550,145.877045 
	C163.238037,145.621918 164.619019,145.810959 166.000000,146.000000 
	C167.494293,147.832947 166.655624,151.572815 170.744965,151.746536 
z"/>
<path fill="#020202" opacity="1.000000" stroke="none" 
	d="
M65.951172,145.650620 
	C63.077457,150.259125 60.203747,154.867645 57.061146,159.674744 
	C56.558865,159.248154 56.325470,158.622955 56.045982,157.082214 
	C55.999928,154.777786 55.999962,153.388885 56.000000,152.000000 
	C57.302212,150.892822 58.604427,149.785645 60.239639,148.111069 
	C62.365479,146.912659 64.158325,146.281631 65.951172,145.650620 
z"/>
<path fill="#010101" opacity="1.000000" stroke="none" 
	d="
M97.010307,50.853138 
	C96.863800,50.937950 96.717285,51.022766 96.319794,51.146164 
	C95.545433,49.358162 95.022064,47.531582 94.127098,44.408154 
	C96.443039,44.408154 98.513206,44.170963 100.444740,44.583252 
	C100.899246,44.680264 100.886070,46.968353 101.037956,48.603455 
	C100.276657,49.313290 99.565445,49.668118 98.309608,50.121223 
	C97.451279,50.356682 97.199715,50.567894 97.010307,50.853138 
z"/>
<path fill="#010101" opacity="1.000000" stroke="none" 
	d="
M80.656731,126.070419 
	C80.682762,127.078072 80.699364,128.524765 79.988670,129.168411 
	C77.351639,131.556671 74.475067,133.680420 71.344231,135.951752 
	C70.817184,129.608261 77.154320,129.375595 80.656731,126.070419 
z"/>
<path fill="#010101" opacity="1.000000" stroke="none" 
	d="
M156.340347,137.920929 
	C154.107071,135.535446 152.214157,133.070908 150.160614,130.303177 
	C154.112305,127.493813 154.488556,132.295380 156.580994,133.610046 
	C157.240265,134.024261 156.681824,136.376587 156.340347,137.920929 
z"/>
<path fill="#010101" opacity="1.000000" stroke="none" 
	d="
M83.632317,94.948929 
	C84.238586,95.351524 84.472343,95.703049 84.707870,96.377953 
	C83.624077,98.350143 82.538513,99.998955 81.452950,101.647774 
	C80.996040,101.647766 80.539139,101.647766 80.082237,101.647758 
	C79.818672,99.461082 79.555115,97.274406 79.291550,95.087738 
	C80.614304,95.024445 81.937050,94.961151 83.632317,94.948929 
z"/>
<path fill="#020202" opacity="1.000000" stroke="none" 
	d="
M171.365982,174.342346 
	C177.700592,173.996536 173.556000,177.220184 173.051544,179.640289 
	C173.000000,180.000000 173.000000,180.500000 172.625000,180.750000 
	C171.500000,181.000000 170.750000,181.000000 170.000000,181.000000 
	C169.685089,180.665741 169.370163,180.331482 168.920685,179.676544 
	C169.616730,177.783112 170.447327,176.210342 171.365982,174.342346 
z"/>
<path fill="#E4E4E4" opacity="1.000000" stroke="none" 
	d="
M94.308594,113.095718 
	C93.391487,111.765251 92.774223,110.557823 92.563004,109.175835 
	C95.797577,111.473183 98.626106,113.945091 101.223145,116.721954 
	C100.311150,117.119308 99.630638,117.211723 98.531395,117.131439 
	C96.944580,115.712090 95.776512,114.465424 94.308594,113.095718 
z"/>
<path fill="#010101" opacity="1.000000" stroke="none" 
	d="
M143.491394,97.368179 
	C143.180893,97.088326 143.266113,96.938652 143.219849,96.915024 
	C144.227295,95.946724 145.280975,95.002052 147.605621,92.917938 
	C147.450180,95.830475 147.369354,97.344803 147.288544,98.859138 
	C146.126328,98.455437 144.964111,98.051743 143.491394,97.368179 
z"/>
<path fill="#010101" opacity="1.000000" stroke="none" 
	d="
M89.705887,124.734192 
	C87.292297,125.333389 84.584595,125.666695 81.438446,126.000000 
	C83.230675,122.341248 86.479858,124.275932 89.705887,124.734192 
z"/>
<path fill="#010101" opacity="1.000000" stroke="none" 
	d="
M81.007133,77.052063 
	C81.574944,79.740822 81.792068,82.469391 81.948219,85.598999 
	C77.790840,83.539948 78.502762,80.415512 81.007133,77.052063 
z"/>
<path fill="#010101" opacity="1.000000" stroke="none" 
	d="
M145.450897,85.923218 
	C145.227524,83.273232 145.333603,80.546379 145.540894,77.415688 
	C148.633255,79.061806 148.682739,82.223938 145.450897,85.923218 
z"/>
<path fill="#010101" opacity="1.000000" stroke="none" 
	d="
M165.955490,145.659332 
	C164.619019,145.810959 163.238037,145.621918 161.446472,145.559418 
	C161.035889,145.685944 161.017303,145.654495 161.272797,145.291321 
	C161.352188,143.618759 161.176086,142.309387 161.000000,141.000000 
	C162.636993,142.439545 164.273987,143.879105 165.955490,145.659332 
z"/>
<path fill="#010101" opacity="1.000000" stroke="none" 
	d="
M65.959366,145.634857 
	C64.158325,146.281631 62.365479,146.912659 60.286392,147.771835 
	C57.760914,143.169479 62.527161,144.448395 64.704056,143.511658 
	C65.413170,144.479309 65.694824,145.031631 65.976486,145.583969 
	C65.976479,145.583969 65.967560,145.619110 65.959366,145.634857 
z"/>
<path fill="#020202" opacity="1.000000" stroke="none" 
	d="
M66.238899,145.459930 
	C65.694824,145.031631 65.413170,144.479309 65.065758,143.463486 
	C66.497612,142.350815 67.995232,141.701645 69.879486,141.077133 
	C69.011177,142.513168 67.756241,143.924530 66.238899,145.459930 
z"/>
<path fill="#020202" opacity="1.000000" stroke="none" 
	d="
M160.568878,141.000626 
	C161.176086,142.309387 161.352188,143.618759 161.268738,145.273071 
	C159.677887,144.313400 158.346573,143.008804 156.853104,141.412689 
	C157.839890,141.081207 158.988831,141.041229 160.568878,141.000626 
z"/>
<path fill="#010101" opacity="1.000000" stroke="none" 
	d="
M142.636169,63.440563 
	C141.372620,62.157448 140.244766,60.431637 139.011475,58.383114 
	C142.582123,57.836926 143.307632,59.923618 142.636169,63.440563 
z"/>
<path fill="#010101" opacity="1.000000" stroke="none" 
	d="
M85.591766,100.075974 
	C86.568710,101.117165 87.218895,102.233421 87.879471,103.674973 
	C83.990677,103.299484 83.769188,102.974686 85.591766,100.075974 
z"/>
<path fill="#010101" opacity="1.000000" stroke="none" 
	d="
M55.650826,152.084015 
	C55.999962,153.388885 55.999928,154.777786 55.999718,156.583344 
	C53.145157,155.768021 53.284130,154.103699 55.650826,152.084015 
z"/>
<path fill="#010101" opacity="1.000000" stroke="none" 
	d="
M146.986694,126.638474 
	C145.802338,126.503738 144.604691,126.007172 143.203522,125.255302 
	C144.911880,123.597267 146.451843,123.352097 146.986694,126.638474 
z"/>
<path fill="#010101" opacity="1.000000" stroke="none" 
	d="
M145.629593,75.032333 
	C145.205933,74.335236 145.098068,73.487312 145.048004,72.319687 
	C145.385666,72.960495 145.665527,73.920998 145.629593,75.032333 
z"/>
<path fill="#010101" opacity="1.000000" stroke="none" 
	d="
M81.560242,72.087555 
	C81.909645,72.861870 81.925125,73.723732 81.813400,74.884430 
	C81.532913,74.180542 81.379623,73.177826 81.560242,72.087555 
z"/>
<path fill="#010101" opacity="1.000000" stroke="none" 
	d="
M170.062592,181.321823 
	C170.750000,181.000000 171.500000,181.000000 172.625000,181.000000 
	C172.041733,181.214539 171.083450,181.429092 170.062592,181.321823 
z"/>
<path fill="#010101" opacity="1.000000" stroke="none" 
	d="
M140.844238,124.794235 
	C140.437180,125.137245 139.874344,125.274490 139.155762,125.206024 
	C139.562836,124.863029 140.125656,124.725746 140.844238,124.794235 
z"/>
<path fill="#010101" opacity="1.000000" stroke="none" 
	d="
M144.581055,69.051193 
	C144.134827,68.642494 143.980560,68.103981 143.850616,67.282646 
	C144.207626,67.640343 144.540314,68.280869 144.581055,69.051193 
z"/>
<path fill="#E4E4E4" opacity="1.000000" stroke="none" 
	d="
M102.154877,119.858559 
	C101.509277,119.044281 100.863678,118.230011 100.593994,117.210434 
	C104.246796,118.030159 107.462952,119.375076 110.813667,120.011246 
	C117.100624,121.204903 122.417183,118.346779 127.804855,115.632523 
	C125.786537,120.268188 117.998741,123.674599 111.778206,122.700691 
	C108.740921,122.225166 105.830711,120.937973 102.445892,119.997742 
	C102.028809,119.977325 102.154877,119.858559 102.154877,119.858559 
z"/>
<path fill="#E4E4E4" opacity="1.000000" stroke="none" 
	d="
M132.789734,110.642647 
	C133.095108,111.416458 133.164703,111.819206 132.821899,112.712738 
	C131.594620,114.130997 130.779739,115.058472 129.964844,115.985947 
	C129.488403,116.198433 129.011948,116.410919 128.270538,116.328560 
	C129.521698,114.113014 131.037827,112.192307 132.789734,110.642647 
z"/>
<path fill="#E4E4E4" opacity="1.000000" stroke="none" 
	d="
M135.656982,105.808090 
	C135.259155,107.840805 134.494553,109.668724 133.376007,111.256683 
	C133.778122,109.212242 134.534164,107.407768 135.656982,105.808090 
z"/>
<path fill="#E4E4E4" opacity="1.000000" stroke="none" 
	d="
M93.299606,108.720810 
	C91.997314,108.176735 91.015175,107.335114 90.505135,106.254211 
	C91.858078,106.817719 92.738914,107.620491 93.299606,108.720810 
z"/>
<path fill="#E1E1E1" opacity="1.000000" stroke="none" 
	d="
M133.747498,54.085548 
	C134.104080,54.721424 133.891678,55.298416 133.354477,55.668175 
	C132.448349,55.169464 131.867020,54.877987 131.095947,54.311256 
	C131.663651,54.032890 132.421066,54.029778 133.747498,54.085548 
z"/>
<path fill="#010102" opacity="1.000000" stroke="none" 
	d="
M58.088173,170.091370 
	C59.208191,165.357407 59.560841,160.662155 61.592731,156.865601 
	C67.555611,145.724030 76.402153,137.244675 88.095879,132.197525 
	C90.089355,131.337112 93.406441,131.460358 95.210831,132.580673 
	C107.527893,140.228088 119.529877,140.259872 131.815842,132.536240 
	C133.523193,131.462906 136.630325,131.230972 138.495010,132.017990 
	C150.579132,137.118240 159.865784,145.733337 165.580276,157.384430 
	C168.310028,162.949982 168.669083,169.678284 170.385452,177.107208 
	C166.888931,177.107208 164.978958,177.107208 163.068985,177.107208 
	C130.245880,177.107239 97.422775,177.108856 64.599670,177.105896 
	C58.103161,177.105316 58.103161,177.097183 58.088173,170.091370 
z"/>
<path fill="#00D2FF" opacity="1.000000" stroke="none" 
	d="
M159.782745,178.081299 
	C162.060318,178.081406 163.873306,178.081406 165.686279,178.081406 
	C165.682388,178.272995 165.678497,178.464584 165.674606,178.656174 
	C131.215363,178.656174 96.756104,178.656174 62.296852,178.656174 
	C62.295776,178.464523 62.294704,178.272858 62.293629,178.081207 
	C94.635147,178.081207 126.976662,178.081207 159.782745,178.081299 
z"/>
<path fill="#020202" opacity="1.000000" stroke="none" 
	d="
M171.111145,164.397995 
	C172.637115,165.172745 174.800186,166.054031 175.466339,167.586151 
	C176.586899,170.163361 176.734528,173.137268 171.788055,171.945999 
	C171.297058,169.530273 171.186157,167.163712 171.111145,164.397995 
z"/>
<path fill="#010101" opacity="1.000000" stroke="none" 
	d="
M102.079010,119.906380 
	C102.897461,121.113747 103.834953,122.323402 104.388802,123.688683 
	C105.006630,125.211685 105.275871,126.876091 104.895134,128.735764 
	C103.923492,125.792252 97.377129,125.209824 101.838776,120.050255 
	C102.154877,119.858559 102.028809,119.977325 102.079010,119.906380 
z"/>
<path fill="#010101" opacity="1.000000" stroke="none" 
	d="
M130.219421,116.170898 
	C130.779739,115.058472 131.594620,114.130997 132.700058,113.088539 
	C132.993729,114.369797 132.996857,115.766045 133.000000,117.581146 
	C132.157990,117.451950 131.315994,116.903900 130.219421,116.170898 
z"/>
<path fill="#010101" opacity="1.000000" stroke="none" 
	d="
M97.285561,50.871220 
	C97.199715,50.567894 97.451279,50.356682 98.004807,50.151947 
	C98.016678,50.352692 97.788750,50.620995 97.285561,50.871220 
z"/>
</svg>